<svg version="1.1" preserveAspectRatio="none" xmlns="http://www.w3.org/2000/svg" width="200" height="200" viewBox="0 0 500 500"><rect width="100%" height="100%" fill="#141414" fill-opacity="1"/><svg viewBox="74.6398 223 393.998 44" width="333" height="37.188006030487465" x="83.5px" y="231.406px" xmlns="http://www.w3.org/2000/svg" xmlns:xlink="http://www.w3.org/1999/xlink" preserveAspectRatio="none"><defs></defs><style>.background {fill:#141414;fill-opacity:1;}.companyName {fill:#E9E41D;fill-opacity:1;}.icon3-str {stroke:#E9E41D;stroke-opacity:1;}.shapeStroke-str {stroke:#E5E5E5;stroke-opacity:1;}</style><g opacity="1" transform="rotate(0 74.6398 223)">
<svg width="393.998" height="44" x="74.6398" y="223" version="1.1" preserveAspectRatio="none" viewBox="0 0 393.998 44">
  <defs><rect x="0" y="0" width="393.998" height="44" rx="0%" ry="0%" id="id-UPl23ini1676546620671"></rect></defs><use class="companyName shapeStroke-str" style="stroke-width:0;" xlink:href="#id-UPl23ini1676546620671"></use>
</svg>
</g><g opacity="1" transform="rotate(0 76.6398 225)">
<svg width="389.998" height="40" x="76.6398" y="225" version="1.1" preserveAspectRatio="none" viewBox="2.76 -28.8 280.8 28.8">
  <g transform="matrix(1 0 0 1 0 0)" class="background"><path id="id-D6z1nYkh11" d="M10.40 0L10.40 0L4.20 0Q3.44 0 3.10-0.34Q2.76-0.68 2.76-1.44L2.76-1.44L2.76-27.36Q2.76-28.12 3.10-28.46Q3.44-28.80 4.20-28.80L4.20-28.80L16.44-28.80Q21.88-28.80 23.88-26.64Q25.88-24.48 25.88-21L25.88-21L25.88-15.88Q25.88-12.40 23.88-10.24Q21.88-8.08 16.44-8.08L16.44-8.08L11.84-8.08L11.84-1.44Q11.84-0.68 11.50-0.34Q11.16 0 10.40 0ZM15.36-21.32L11.76-21.32L11.76-15.28L15.36-15.28Q16.52-15.28 16.88-15.88Q17.24-16.48 17.24-17.24L17.24-17.24L17.24-19.36Q17.24-20.12 16.88-20.72Q16.52-21.32 15.36-21.32L15.36-21.32Z M40.08-20.40L40.08-20.40L38.20-14.32L44.48-14.32L42.60-20.40Q42.44-20.76 42.26-20.92Q42.08-21.08 41.84-21.08L41.84-21.08L40.84-21.08Q40.60-21.08 40.42-20.92Q40.24-20.76 40.08-20.40ZM37.80-7.04L37.80-1.44Q37.80-0.68 37.46-0.34Q37.12 0 36.36 0L36.36 0L30.48 0Q29.72 0 29.38-0.34Q29.04-0.68 29.04-1.44L29.04-1.44L29.04-12Q29.04-13.20 29.42-14.76Q29.80-16.32 30.60-18.40L30.60-18.40L34.08-27.48Q34.32-28.16 34.82-28.48Q35.32-28.80 36.12-28.80L36.12-28.80L46.88-28.80Q47.64-28.80 48.14-28.48Q48.64-28.16 48.88-27.48L48.88-27.48L52.36-18.40Q53.16-16.32 53.54-14.76Q53.92-13.20 53.92-12L53.92-12L53.92-1.44Q53.92-0.68 53.58-0.34Q53.24 0 52.48 0L52.48 0L46.44 0Q45.64 0 45.26-0.34Q44.88-0.68 44.88-1.44L44.88-1.44L44.88-7.04L37.80-7.04Z M76.68 0L59.64 0Q58.88 0 58.54-0.34Q58.20-0.68 58.20-1.44L58.20-1.44L58.20-6.20Q58.20-6.96 58.54-7.30Q58.88-7.64 59.64-7.64L59.64-7.64L63.60-7.64L63.60-21.08L59.64-21.08Q58.88-21.08 58.54-21.42Q58.20-21.76 58.20-22.52L58.20-22.52L58.20-27.36Q58.20-28.12 58.54-28.46Q58.88-28.80 59.64-28.80L59.64-28.80L76.68-28.80Q77.44-28.80 77.78-28.46Q78.12-28.12 78.12-27.36L78.12-27.36L78.12-22.52Q78.12-21.76 77.78-21.42Q77.44-21.08 76.68-21.08L76.68-21.08L72.80-21.08L72.80-7.64L76.68-7.64Q77.44-7.64 77.78-7.30Q78.12-6.96 78.12-6.20L78.12-6.20L78.12-1.44Q78.12-0.68 77.78-0.34Q77.44 0 76.68 0L76.68 0Z M90.48 0L90.48 0L84.48 0Q83.72 0 83.38-0.34Q83.04-0.68 83.04-1.44L83.04-1.44L83.04-27.36Q83.04-28.12 83.38-28.46Q83.72-28.80 84.48-28.80L84.48-28.80L88.64-28.80Q89.40-28.80 89.94-28.56Q90.48-28.32 91-27.72L91-27.72L98.76-18.84L98.76-27.36Q98.76-28.12 99.10-28.46Q99.44-28.80 100.20-28.80L100.20-28.80L106.20-28.80Q106.96-28.80 107.30-28.46Q107.64-28.12 107.64-27.36L107.64-27.36L107.64-1.44Q107.64-0.68 107.30-0.34Q106.96 0 106.20 0L106.20 0L100.20 0Q99.44 0 99.10-0.34Q98.76-0.68 98.76-1.44L98.76-1.44L98.76-6.36L91.92-14.64L91.92-1.44Q91.92-0.68 91.58-0.34Q91.24 0 90.48 0Z M126.76 0L126.76 0L120.28 0Q119.52 0 119.18-0.34Q118.84-0.68 118.84-1.44L118.84-1.44L118.84-21.08L112.96-21.08Q112.20-21.08 111.86-21.42Q111.52-21.76 111.52-22.52L111.52-22.52L111.52-27.36Q111.52-28.12 111.86-28.46Q112.20-28.80 112.96-28.80L112.96-28.80L134.08-28.80Q134.84-28.80 135.18-28.46Q135.52-28.12 135.52-27.36L135.52-27.36L135.52-22.52Q135.52-21.76 135.18-21.42Q134.84-21.08 134.08-21.08L134.08-21.08L128.20-21.08L128.20-1.44Q128.20-0.68 127.86-0.34Q127.52 0 126.76 0Z M167.16 0L167.16 0L157.40 0Q152.40 0 149.98-2Q147.56-4 147.56-8.16L147.56-8.16L147.56-20.60Q147.56-24.76 149.98-26.78Q152.40-28.80 157.40-28.80L157.40-28.80L167.16-28.80Q167.92-28.80 168.26-28.46Q168.60-28.12 168.60-27.36L168.60-27.36L168.60-22.52Q168.60-21.76 168.26-21.42Q167.92-21.08 167.16-21.08L167.16-21.08L159.12-21.08Q157.88-21.08 157.28-20.58Q156.68-20.08 156.68-19.08L156.68-19.08L156.68-9.56Q156.68-8.56 157.28-8.10Q157.88-7.64 159.12-7.64L159.12-7.64L167.16-7.64Q167.92-7.64 168.26-7.30Q168.60-6.96 168.60-6.20L168.60-6.20L168.60-1.44Q168.60-0.68 168.26-0.34Q167.92 0 167.16 0Z M180.76 0L180.76 0L174.56 0Q173.80 0 173.46-0.34Q173.12-0.68 173.12-1.44L173.12-1.44L173.12-27.36Q173.12-28.12 173.46-28.46Q173.80-28.80 174.56-28.80L174.56-28.80L180.76-28.80Q181.52-28.80 181.86-28.46Q182.20-28.12 182.20-27.36L182.20-27.36L182.20-18.68L188.88-18.68L188.88-27.36Q188.88-28.12 189.22-28.46Q189.56-28.80 190.32-28.80L190.32-28.80L196.52-28.80Q197.28-28.80 197.62-28.46Q197.96-28.12 197.96-27.36L197.96-27.36L197.96-1.44Q197.96-0.68 197.62-0.34Q197.28 0 196.52 0L196.52 0L190.32 0Q189.56 0 189.22-0.34Q188.88-0.68 188.88-1.44L188.88-1.44L188.88-10.32L182.20-10.32L182.20-1.44Q182.20-0.68 181.86-0.34Q181.52 0 180.76 0Z M213.92-20.40L213.92-20.40L212.04-14.32L218.32-14.32L216.44-20.40Q216.28-20.76 216.10-20.92Q215.92-21.08 215.68-21.08L215.68-21.08L214.68-21.08Q214.44-21.08 214.26-20.92Q214.08-20.76 213.92-20.40ZM211.64-7.04L211.64-1.44Q211.64-0.68 211.30-0.34Q210.96 0 210.20 0L210.20 0L204.32 0Q203.56 0 203.22-0.34Q202.88-0.68 202.88-1.44L202.88-1.44L202.88-12Q202.88-13.20 203.26-14.76Q203.64-16.32 204.44-18.40L204.44-18.40L207.92-27.48Q208.16-28.16 208.66-28.48Q209.16-28.80 209.96-28.80L209.96-28.80L220.72-28.80Q221.48-28.80 221.98-28.48Q222.48-28.16 222.72-27.48L222.72-27.48L226.20-18.40Q227.00-16.32 227.38-14.76Q227.76-13.20 227.76-12L227.76-12L227.76-1.44Q227.76-0.68 227.42-0.34Q227.08 0 226.32 0L226.32 0L220.28 0Q219.48 0 219.10-0.34Q218.72-0.68 218.72-1.44L218.72-1.44L218.72-7.04L211.64-7.04Z M244.72-21.60L241.72-21.60L241.72-16.48L244.72-16.48Q245.76-16.48 246.12-17.02Q246.48-17.56 246.48-18.36L246.48-18.36L246.48-19.72Q246.48-20.52 246.12-21.06Q245.76-21.60 244.72-21.60L244.72-21.60ZM240.28 0L240.28 0L234.12 0Q233.36 0 233.02-0.34Q232.68-0.68 232.68-1.44L232.68-1.44L232.68-27.36Q232.68-28.12 233.02-28.46Q233.36-28.80 234.12-28.80L234.12-28.80L247.44-28.80Q251.92-28.80 253.62-26.94Q255.32-25.08 255.32-22.12L255.32-22.12L255.32-20.28Q255.32-18.60 254.82-17.42Q254.32-16.24 253.08-15.72L253.08-15.72Q255.24-15.48 256.58-13.96Q257.92-12.44 257.92-9.92L257.92-9.92L257.92-1.44Q257.92-0.68 257.58-0.34Q257.24 0 256.48 0L256.48 0L250.28 0Q249.52 0 249.18-0.34Q248.84-0.68 248.84-1.44L248.84-1.44L248.84-7.56Q248.84-8.44 248.50-8.86Q248.16-9.28 247.32-9.28L247.32-9.28L241.72-9.28L241.72-1.44Q241.72-0.68 241.38-0.34Q241.04 0 240.28 0Z M274.80 0L274.80 0L268.32 0Q267.56 0 267.22-0.34Q266.88-0.68 266.88-1.44L266.88-1.44L266.88-21.08L261-21.08Q260.24-21.08 259.90-21.42Q259.56-21.76 259.56-22.52L259.56-22.52L259.56-27.36Q259.56-28.12 259.90-28.46Q260.24-28.80 261-28.80L261-28.80L282.12-28.80Q282.88-28.80 283.22-28.46Q283.56-28.12 283.56-27.36L283.56-27.36L283.56-22.52Q283.56-21.76 283.22-21.42Q282.88-21.08 282.12-21.08L282.12-21.08L276.24-21.08L276.24-1.44Q276.24-0.68 275.90-0.34Q275.56 0 274.80 0Z"/></g>
</svg>
</g></svg></svg>